<?xml version="1.0" encoding="UTF-8" standalone="no"?>
<!-- Created with Inkscape (http://www.inkscape.org/) -->

<svg
   xmlns:dc="http://purl.org/dc/elements/1.1/"
   xmlns:cc="http://creativecommons.org/ns#"
   xmlns:rdf="http://www.w3.org/1999/02/22-rdf-syntax-ns#"
   xmlns:svg="http://www.w3.org/2000/svg"
   xmlns="http://www.w3.org/2000/svg"
   xmlns:sodipodi="http://sodipodi.sourceforge.net/DTD/sodipodi-0.dtd"
   xmlns:inkscape="http://www.inkscape.org/namespaces/inkscape"
   width="210mm"
   height="210mm"
   viewBox="0 0 210 210"
   version="1.1"
   id="svg889"
   inkscape:version="0.92.5 (0.92.5+68)"
   sodipodi:docname="avatar_femme.svg">
  <defs
     id="defs883" />
  <sodipodi:namedview
     id="base"
     pagecolor="#ffffff"
     bordercolor="#666666"
     borderopacity="1.0"
     inkscape:pageopacity="0.0"
     inkscape:pageshadow="2"
     inkscape:zoom="0.45601879"
     inkscape:cx="782.08805"
     inkscape:cy="188.8928"
     inkscape:document-units="mm"
     inkscape:current-layer="g829"
     showgrid="false"
     inkscape:window-width="1920"
     inkscape:window-height="949"
     inkscape:window-x="0"
     inkscape:window-y="50"
     inkscape:window-maximized="1" />
  <metadata
     id="metadata886">
    <rdf:RDF>
      <cc:Work
         rdf:about="">
        <dc:format>image/svg+xml</dc:format>
        <dc:type
           rdf:resource="http://purl.org/dc/dcmitype/StillImage" />
        <dc:title></dc:title>
      </cc:Work>
    </rdf:RDF>
  </metadata>
  <g
     inkscape:label="Calque 1"
     inkscape:groupmode="layer"
     id="layer1"
     transform="translate(0,-87)">
    <g
       id="g829"
       transform="matrix(0.80650147,0,0,0.80650147,138.69421,68.601406)"
       style="opacity:1;stroke-width:1.23992336">
      <g
         transform="translate(-170.51104,-16.932966)"
         style="opacity:1;stroke-width:1.23992336"
         id="g1445" />
      <g
         id="g842"
         transform="matrix(1,0,0,0.97619047,21.360159,16.86938)"
         style="stroke-width:1.25495338">
        <path
           style="opacity:1;fill:#edceb2;stroke-width:1.25495338"
           d="m 66.309953,141.87283 -0.383458,-1.53073 c -0.210904,-0.84191 -0.532243,-2.3954 -0.714089,-3.45222 -0.181845,-1.05682 -0.474252,-2.04068 -0.649795,-2.18636 -0.175541,-0.14569 -1.282907,-0.55335 -2.460811,-0.90591 -2.673654,-0.80026 -4.176046,-1.67185 -5.878192,-3.41012 -1.190416,-1.21569 -1.428972,-1.66768 -2.255258,-4.27302 -0.987521,-3.11372 -1.741893,-7.30612 -2.238164,-12.43852 -0.350059,-3.62031 -0.17984,-5.86994 0.552815,-7.30607 l 0.507654,-0.99508 4.132803,0.56723 C 72.803067,44.048447 143.27128,20.950658 152.52009,82.424805 l 2.36135,21.649955 c 0,0 1.02836,0.69422 1.58398,0.97768 1.14137,0.58228 2.85504,2.36375 3.23491,3.36289 0.38719,1.01837 0.30078,6.0863 -0.16058,9.4187 -1.08279,7.82092 -2.71798,12.99156 -4.61272,14.58588 -0.93669,0.78816 -4.19125,1.88566 -6.40924,2.16131 -0.83239,0.10345 -1.61959,0.32364 -1.74933,0.48932 -0.12975,0.16568 -0.54702,2.38482 -0.92727,4.93144 -1.77857,11.91138 -2.17393,13.69725 -3.56614,16.1087 -1.75534,3.04042 -2.01518,3.43409 -3.66775,5.55671 l -3.22185,4.21589 c -12.66681,35.87869 -71.827553,13.22033 -69.075497,-24.01045 z"
           id="path1459"
           inkscape:connector-curvature="0"
           sodipodi:nodetypes="csscccsscccccccccccccscc"
           transform="translate(-170.51104,-16.932966)" />
        <path
           style="opacity:1;fill:#ebc09b;stroke-width:1.25495338"
           d="m 74.404285,159.85573 c 0.897263,1.04131 1.70461,2.18503 1.7941,2.54159 0.188206,0.74987 5.198491,5.79513 7.468249,7.52037 0.847923,0.64451 2.434648,1.89717 3.526054,2.78369 8.242835,6.69544 17.375102,10.64809 23.223692,10.05173 4.764,-0.48576 11.7677,-4.68411 18.71277,-11.21731 1.60073,-1.5058 3.34796,-3.13933 3.88274,-3.63007 0.53478,-0.49074 1.07171,-1.04648 1.19318,-1.23498 0.12146,-0.18849 0.6178,-0.69991 1.10297,-1.13647 l 0.88211,-0.79375 -0.17536,6.08542 c -0.21793,7.56265 -0.32359,10.28319 -0.65251,16.80104 -0.1432,2.83765 -0.26479,6.67182 -0.27019,8.52038 l -0.01,3.361 0.8599,0.24743 c 0.47294,0.13609 3.0708,2.03866 5.8357,3.16239 49.22053,45.3052 34.83885,70.3638 -33.95059,76.59943 C 27.042648,273.30748 55.468358,186.48399 74.404285,159.85573 Z m -13.742116,-51.99017 1.006872,6.34477 c 0.553778,3.48963 1.032465,7.11869 1.063749,8.06457 0.05778,1.74705 0.471459,4.66946 0.898866,6.35 0.489241,1.92369 0.726784,4.64291 0.432962,4.95623 -0.14981,0.15975 -3.616322,-0.98946 -4.811467,-1.59508 -0.739999,-0.37499 -1.935593,-1.3275 -2.656871,-2.1167 -1.136306,-1.2433 -1.424036,-1.80197 -2.154841,-4.18394 -1.305547,-4.25528 -2.041933,-9.40548 -2.038692,-14.25842 0.0021,-3.00819 0.10494,-4.32845 0.386268,-4.95441 z m 95.388311,-2.23981 c 1.23894,0.50195 2.79159,2.24278 3.1366,3.51676 0.54072,1.9967 -0.0973,9.05732 -1.31815,14.5876 -1.0033,4.54476 -2.30898,7.58351 -3.60168,8.3823 -0.90276,0.55784 -4.48775,1.67745 -6.10595,1.90693 -0.64501,0.14517 -1.57908,0.15667 -1.45156,-0.87091 1.53503,-6.65224 1.42767,-13.8336 2.26833,-20.7875 2.49858,-4.37845 2.20683,-10.63936 7.07241,-6.73518 z"
           id="path1457"
           inkscape:connector-curvature="0"
           sodipodi:nodetypes="cccscsscccsscccccccscccccsccccccccccc"
           transform="translate(-170.51104,-16.932966)" />
        <path
           style="opacity:1;fill:#e1b694;stroke-width:1.25495338"
           d="m 107.6979,193.18452 c -1.47071,-0.21932 -4.18217,-1.29337 -5.65413,-2.23966 -2.801525,-1.80107 -7.140277,-6.34184 -13.385883,-14.0092 -0.722111,-0.88649 -1.450509,-1.73086 -1.618665,-1.87638 -0.168154,-0.14552 -0.934932,-1.09802 -1.703951,-2.11667 -0.76902,-1.01864 -1.5289,-2.01931 -1.688629,-2.2237 -0.569863,-0.7292 1.469421,0.53017 3.381123,2.08803 7.135125,5.81446 15.076455,9.64392 21.113085,10.18113 5.34488,0.47565 12.3387,-3.30368 21.58884,-11.66621 0.91238,-0.82483 1.73292,-1.42565 1.82342,-1.33515 0.35088,0.35088 -10.47867,16.0668 -13.48946,19.57599 -1.58019,1.84177 -4.0532,3.20028 -6.56886,3.60848 -1.8407,0.29868 -1.88251,0.29883 -3.79689,0.0133 z"
           id="path1455"
           inkscape:connector-curvature="0"
           sodipodi:nodetypes="cccccssssssscc"
           transform="translate(-170.51104,-16.932966)" />
        <path
           style="opacity:1;fill:#eb5a27;stroke-width:1.25495338"
           d="m -4.220458,289.25975 13.1610367,-62.50411 69.5156023,-26.68473 -2.83254,2.65111 c -3.279632,3.06956 -6.603874,11.68043 -8.087757,15.19976 -10.973658,25.79063 -11.531923,47.51129 21.129443,55.04839 4.271884,0.95279 5.485364,1.12747 10.92555,1.57279 7.843563,0.64201 19.679353,0.35182 25.927263,-0.63569 31.82377,-7.06978 31.31681,-21.25453 27.47799,-44.24911 -1.9139,-6.21088 -7.67773,-17.96803 -12.23833,-24.96394 -1.31134,-2.01159 -5.71893,-5.07187 -5.67571,-5.18585 l 72.92303,28.03159 11.03131,62.21617 -223.256888,-0.49641 z"
           id="path1451"
           inkscape:connector-curvature="0"
           sodipodi:nodetypes="cccscccccsccccc"
           transform="translate(-170.51104,-16.932966)" />
        <path
           style="opacity:1;fill:#5d3612;stroke-width:1.25495338"
           d="m 33.746854,218.58043 c 0,0 2.320491,-8.31554 4.125473,-14.93816 2.887266,-14.77652 16.96934,-49.81049 28.308785,-59.86104 0.02698,0.0315 0.553204,1.89806 1.169397,4.14798 1.708926,6.23985 2.852153,8.52563 6.369828,12.73589 0.861354,1.03095 1.566662,2.13154 1.567347,2.44577 l 3.168497,36.96004 c 0.402135,0.35936 -44.709327,18.50952 -44.709327,18.50952 z m 27.43227,-99.41438 c -0.06359,-0.10914 -1.160912,-2.2225 -2.438487,-4.69635 -2.96512,-5.74157 -4.452988,-8.40082 -5.618226,-10.04141 -0.827551,-1.16514 -0.969323,-1.61905 -1.280904,-4.10104 -1.759365,-14.736155 0.927013,-42.768691 23.577212,-61.603041 4.221892,-3.590637 11.247077,-7.224403 16.007292,-8.27975 1.837289,-0.475556 4.490496,-0.920321 4.744751,-0.961051 1.25426,-0.256688 10.415428,0.01148 10.415428,0.01148 l 2.67021,0.513519 c 0,0 6.25823,1.456177 9.70326,2.818292 l 4.00864,1.584952 2.15438,-0.516517 c 4.76419,-1.14223 9.26303,-0.257069 13.26688,2.6103 7.77002,6.183139 13.0641,14.46383 15.59044,22.708872 3.96515,11.910973 3.6385,23.174653 4.16253,35.621223 l -8.69052,20.746461 c -0.33266,0.79415 2.70244,-46.928388 -9.43434,-50.192538 -0.0669,-0.018 -0.77677,-0.863203 -1.57211,-1.918229 -4.2865,-5.686076 -8.05222,-7.501869 -13.87855,-6.692101 -1.23627,0.17182 -1.62474,0.09076 -3.57187,-0.74535 -7.28879,-3.129841 -15.41093,-1.041905 -25.51304,6.558568 -3.958133,2.977963 -11.978702,10.892209 -15.66992,15.462198 -1.688795,2.090851 -3.276248,4.055382 -3.527673,4.365625 -0.251426,0.310245 -0.457388,0.445018 -0.457695,0.299498 -2.65e-4,-0.145521 0.741188,-1.309214 1.647761,-2.585982 0.906577,-1.276768 2.422227,-3.463788 3.368112,-4.860039 0.945885,-1.396254 3.148542,-4.436748 4.894792,-6.756657 4.524933,-6.01141 4.407498,-5.837325 4.126979,-6.117844 -0.874856,-0.874855 -6.740893,5.871641 -12.551995,14.435979 -1.259835,1.856732 -2.29061,3.442624 -2.29061,3.524205 0,0.08158 -0.340841,0.646031 -0.757425,1.254332 -1.313614,1.91816 -6.66133,11.234317 -9.875412,17.20378 -3.451979,6.411305 -4.524629,8.701075 -4.494805,9.594985 0.02289,0.68561 0.399891,3.19133 1.518484,10.09214 0.13118,0.80926 0.02604,1.10701 -0.233572,0.66146 z M 95.659355,97.755849 c -0.363802,-0.05793 -2.328333,-0.473382 -4.365625,-0.923226 -2.614936,-0.577392 -4.783255,-1.236299 -7.342947,-0.98897 l -5.361611,0.518063 c -1.947805,0.459937 -3.023065,1.56392 -5.683984,3.452544 1.462851,-1.861683 3.079569,-4.393063 5.722866,-5.825625 l 0.776589,-0.298879 c 1.304795,-0.502171 4.337354,-0.604184 8.340207,-0.280561 5.033187,0.406924 7.093712,0.858393 8.577707,1.879409 1.525061,1.049269 2.237692,2.05644 1.697127,2.398578 -0.379206,0.240009 -1.144455,0.262271 -2.360329,0.06867 z m 24.454085,-0.07608 c -1.36549,0.316691 -3.74452,0.319543 -3.93909,0.0047 v 2.6e-5 c -0.26961,-0.436248 1.43365,-2.088356 2.85258,-2.766909 0.91901,-0.439481 2.06875,-0.71309 3.48763,-0.829961 l 2.11667,-0.174348 1.62081,-0.241783 3.29064,-0.03212 c 4.42768,-0.04322 5.69658,0.288512 7.53675,1.970325 1.20608,1.102286 2.75604,2.894854 2.45263,2.836516 -0.0463,-0.0089 -0.6478,-0.415343 -1.33669,-0.903205 v 2e-6 c -1.54631,-1.095081 -3.18082,-1.46232 -6.49956,-1.460302 -2.28034,0.0013 -6.94661,0.531969 -8.3875,0.953709 z"
           id="path1447"
           inkscape:connector-curvature="0"
           sodipodi:nodetypes="cccscccccccccccccccccccsssccsscccssssscscccccssccccsscccccccsccsccccccc"
           transform="translate(-170.51104,-16.932966)" />
        <path
           style="fill:#522f13;fill-opacity:1;stroke:none;stroke-width:0.33203971px;stroke-linecap:butt;stroke-linejoin:miter;stroke-opacity:1"
           d="m -47.343624,39.901743 c 0,0 2.15611,-0.681689 2.87185,-2.000044 0.71574,-1.318355 -4.83329,-15.888619 -2.87186,-16.61574 1.96143,-0.727121 7.43606,14.769546 7.43606,14.769546 15.11979,6.408772 19.95591,26.315669 27.53906,41.847058 l -9.4361,21.846613 c 2.60649,-16.510053 -0.35472,-20.945909 -0.79501,-27.75079 -0.9041,-13.973206 -5.52905,-21.0002 -10.5582,-26.945192 -3.37365,-3.98802 -5.86984,-6.989646 -14.1858,-5.151451 z m -60.821826,64.668057 -2.46159,-14.666977 10.872027,-20.410697 c -6.188167,5.899634 -12.684037,13.379127 -18.872207,15.846497 3.38188,3.9866 6.95567,12.387403 10.46177,19.231177 z"
           id="path820"
           inkscape:connector-curvature="0"
           sodipodi:nodetypes="czzcccsscccccc" />
      </g>
    </g>
  </g>
</svg>
