<?xml version="1.0" encoding="UTF-8" standalone="no"?>
<!-- Created with Inkscape (http://www.inkscape.org/) -->

<svg
   xmlns:dc="http://purl.org/dc/elements/1.1/"
   xmlns:cc="http://creativecommons.org/ns#"
   xmlns:rdf="http://www.w3.org/1999/02/22-rdf-syntax-ns#"
   xmlns:svg="http://www.w3.org/2000/svg"
   xmlns="http://www.w3.org/2000/svg"
   xmlns:sodipodi="http://sodipodi.sourceforge.net/DTD/sodipodi-0.dtd"
   xmlns:inkscape="http://www.inkscape.org/namespaces/inkscape"
   width="210mm"
   height="210mm"
   viewBox="0 0 210 210"
   version="1.1"
   id="svg8"
   inkscape:version="0.92.5 (0.92.5+68)"
   sodipodi:docname="avatar_homme.svg">
  <defs
     id="defs2" />
  <sodipodi:namedview
     id="base"
     pagecolor="#ffffff"
     bordercolor="#666666"
     borderopacity="1.0"
     inkscape:pageopacity="0.0"
     inkscape:pageshadow="2"
     inkscape:zoom="0.64490794"
     inkscape:cx="838.70271"
     inkscape:cy="493.5023"
     inkscape:document-units="mm"
     inkscape:current-layer="layer1"
     showgrid="false"
     inkscape:window-width="1920"
     inkscape:window-height="949"
     inkscape:window-x="0"
     inkscape:window-y="50"
     inkscape:window-maximized="1" />
  <metadata
     id="metadata5">
    <rdf:RDF>
      <cc:Work
         rdf:about="">
        <dc:format>image/svg+xml</dc:format>
        <dc:type
           rdf:resource="http://purl.org/dc/dcmitype/StillImage" />
        <dc:title></dc:title>
      </cc:Work>
    </rdf:RDF>
  </metadata>
  <g
     inkscape:label="Calque 1"
     inkscape:groupmode="layer"
     id="layer1"
     transform="translate(0,-87)">
    <g
       id="g846"
       transform="matrix(0.73116793,0,0,0.73116793,58.876848,75.929007)"
       style="stroke-width:1.36767495">
      <path
         style="fill:#edceb2;stroke-width:1.36767495"
         d="m 26.690368,167.8061 c -0.838969,-1.03056 -1.329923,-2.49911 -1.623592,-3.175 -1.477378,-3.40022 -4.401799,-13.97306 -5.879849,-21.25777 -0.354004,-1.74474 -0.776967,-3.25465 -0.939919,-3.35536 -0.162951,-0.10071 -1.46948,-0.24776 -2.903397,-0.32677 -4.269743,-0.23528 -5.7378575,-1.3259 -7.2918851,-5.41693 -1.9302439,-5.08144 -3.7334534,-12.27186 -5.2834673,-21.06821 -0.6143678,-3.48654 -0.6245649,-3.71356 -0.2063803,-4.59481 0.4635235,-0.97681 1.6856499,-1.9879 3.9884615,-3.29976 1.678276,-0.95608 1.6728044,-0.90524 0.5866157,-5.450265 C 6.1801851,95.857727 5.849874,92.764957 5.9585992,88.827978 16.57981,46.895105 109.04396,49.521419 114.99244,103.69847 c 0.12953,0.0432 1.16506,0.67413 2.30119,1.40206 1.68803,1.08156 2.16055,1.53799 2.58459,2.49661 0.42897,0.96976 0.4742,1.37262 0.26093,2.32429 -0.1419,0.63316 -0.50664,2.75412 -0.81054,4.71325 -0.3039,1.95913 -0.95772,5.34799 -1.45293,7.5308 -0.82199,3.62326 -1.19192,5.0892 -2.37028,9.39271 -0.62953,2.29913 -2.53667,5.8295 -3.45245,6.39096 -0.97408,0.59719 -3.20142,1.26301 -4.89688,1.46381 -0.69634,0.0825 -1.40339,0.23481 -1.57121,0.33853 -0.27512,0.17004 -0.49862,1.32696 -1.3306,6.88795 -1.15501,7.72008 -2.42582,13.87823 -3.18957,15.4562 -0.53063,1.09632 -1.03698,1.8372 -2.631809,3.85084 -38.408333,46.1559 -42.514221,45.08709 -71.742513,1.85962 z"
         id="path862"
         inkscape:connector-curvature="0"
         sodipodi:nodetypes="ccsccssccscccccsccccccccc" />
      <path
         style="fill:#ebc09b;stroke-width:1.36767495"
         d="m -70.266702,302.30794 10.572578,-79.58071 86.777036,-32.16696 -0.392544,-22.75417 c 0.126571,0 0.930243,0.85042 1.785938,1.88981 1.935937,2.35155 5.666864,6.15566 7.234885,7.37679 0.649642,0.50592 2.376049,1.9773 3.836459,3.26973 4.226327,3.74019 8.243252,6.77331 11.806351,8.91481 3.956505,2.37794 13.329166,2.95488 18.983844,1.16857 2.822742,-0.8917 5.845469,-3.14582 13.124768,-9.78741 1.754426,-1.60073 3.3684,-3.02948 3.586607,-3.175 0.218207,-0.14552 2.379131,-2.26705 4.802055,-4.7145 2.756721,-2.78462 4.524956,-4.63131 4.642703,-4.44079 0.103489,0.16745 0.06405,1.51275 -0.0275,2.62858 l 0.579642,19.96026 c 26.63789,11.89699 57.17322,20.90712 85.53615,31.48928 0,0 9.03968,57.86839 12.85342,79.96701 l -265.702513,-0.0453 z M 13.734561,138.96312 c -2.575452,-0.43564 -3.8783767,-1.6407 -5.0319945,-4.65403 -1.5834651,-4.13612 -2.6303711,-7.85831 -3.9364444,-13.99569 -0.3096789,-1.45521 -0.6186779,-2.88396 -0.6866679,-3.175 -0.336251,-1.43938 -1.1568324,-6.71931 -1.1616505,-7.47448 -0.00712,-1.11407 1.4023976,-2.55822 3.573325,-3.66114 1.4368357,-0.72997 1.5878043,-0.88793 1.6601811,-1.73704 0.043788,-0.51372 -0.2792042,-2.43548 -0.7177617,-4.270575 C 6.1092662,94.453864 6.0499783,93.232216 6.4742562,80.229019 6.8353702,69.161678 7.6792058,49.709355 7.8035838,49.584974 c 0.072086,-0.07208 0.8281009,0.572323 1.6800354,1.432013 1.6343258,1.649209 2.8207948,2.445406 3.1517378,2.115029 0.10936,-0.109175 0.233347,-3.998728 0.275527,-8.643456 0.04265,-4.696704 0.181144,-8.444958 0.312033,-8.444958 0.129442,0 0.806233,1.726406 1.503985,3.836458 0.697751,2.110052 1.348613,3.836459 1.446363,3.836459 0.22094,0 0.416248,-2.485692 0.769186,-9.789584 0.334515,-6.922566 0.449498,-7.9375 0.899245,-7.9375 0.18968,0 0.80746,0.579654 1.372851,1.288119 1.034172,1.295876 3.433956,4.087839 5.576398,6.48771 1.997427,2.237433 2.094873,2.712159 -2.2583,-11.001851 -1.186805,-3.738843 -2.157826,-6.983297 -2.157826,-7.209896 0,-0.2266 0.17893,-0.411999 0.397619,-0.411999 0.218691,0 3.693358,2.21651 7.721483,4.925576 7.639847,5.138087 12.217374,7.975698 14.0471,8.707811 3.709215,1.484132 2.906988,-1.671288 -2.108028,-8.291574 -2.050409,-2.70673 -2.335805,-3.225146 -1.775492,-3.225146 0.290029,0 4.294209,0.760595 13.335027,2.532986 14.877468,2.916632 21.856537,4.928359 35.899803,10.348174 2.281719,0.8806 2.688447,0.741114 2.451248,-0.84065 -0.09836,-0.655926 -0.09057,-1.192593 0.01733,-1.192593 0.348702,0 4.566081,3.670033 5.134168,4.467836 0.302821,0.425275 0.550585,1.015712 0.550585,1.312079 0,0.296371 0.0893,0.590196 0.198438,0.652944 0.10914,0.06275 1.865312,-0.281635 3.9026,-0.765296 3.78061,-0.897533 4.89565,-1.05854 4.89369,-0.706626 -5.3e-4,0.109141 -0.2964,0.780471 -0.6573,1.491845 -0.44257,0.872316 -0.60334,1.518362 -0.49383,1.984376 0.30551,1.300117 2.3281,4.905229 3.79679,6.767486 2.86176,3.628644 3.51896,4.699264 4.65878,7.589499 3.1919,8.093628 4.55346,19.047127 4.2377,34.091274 -0.1533,7.303413 -0.19104,7.718426 -1.19981,13.192573 -0.57283,3.108568 -0.98178,5.807628 -0.90876,5.997898 0.073,0.19027 0.78542,0.67617 1.58314,1.07978 1.84624,0.93412 3.2719,2.4748 3.2719,3.53591 0,1.95966 -2.24892,13.74159 -3.46069,18.1303 -0.28126,1.01864 -0.69304,2.60145 -0.91507,3.51734 -0.76649,3.16186 -2.49728,6.37871 -3.79228,7.04839 -0.41942,0.21689 -1.79506,0.59721 -3.05698,0.84515 -2.92047,0.57383 -3.20575,0.39699 -2.80118,-1.73629 0.38333,-2.02129 0.33507,-3.21711 -0.14397,-3.56739 -0.36349,-0.26579 -0.4279,-2.44337 -0.54873,-18.55001 -0.14378,-19.165129 -0.22682,-22.260228 -0.64929,-24.201984 -0.67465,-3.1008 -2.38473,-7.285249 -4.04069,-9.887291 C 99.444963,79.64927 98.973539,78.818732 98.87251,78.550254 98.771484,78.281776 98.451301,78 98.160993,77.924083 c -0.290315,-0.07592 -0.527839,-0.292619 -0.527839,-0.48156 0,-0.467252 -2.216565,-2.391844 -3.836458,-3.33111 -3.488622,-2.022813 -7.751022,-2.425787 -12.832292,-1.213186 -1.527969,0.364638 -3.671094,0.856324 -4.7625,1.09264 -1.091407,0.236315 -3.857356,0.843605 -6.146554,1.349533 -2.289199,0.505929 -4.471901,0.919869 -4.850445,0.919869 -0.378545,0 -1.499574,-0.356087 -2.491174,-0.791302 -2.527049,-1.109128 -7.285792,-2.278888 -10.721203,-2.635409 -7.220826,-0.749361 -14.446689,1.341546 -20.112662,5.819891 -2.229099,1.761863 -5.546569,5.309299 -7.296148,7.80191 -2.501841,3.564352 -3.082131,5.742125 -4.344339,16.303881 -0.51036,4.27051 -1.057735,8.65754 -1.216387,9.74895 -0.158655,1.0914 -0.348055,6.62781 -0.420889,12.30312 -0.110969,8.64686 -0.194694,10.3543 -0.516729,10.53815 -0.306805,0.17515 -0.347916,0.58864 -0.203866,2.05052 l 0.180435,1.83112 -1.555541,-0.0311 c -0.855549,-0.0171 -2.102877,-0.1237 -2.771841,-0.23686 z"
         id="path860"
         inkscape:connector-curvature="0"
         sodipodi:nodetypes="ccccccccssscscccccccssccscsscccsssssscssssscsssscscscscccccccccsccccscscsccssscssssssscscscccc" />
      <path
         style="fill:#dfb694;stroke-width:1.36767495"
         d="m 58.342608,203.8879 c -1.018646,-0.21317 -2.503274,-0.70124 -3.299172,-1.08462 -1.908141,-0.91912 -5.517237,-4.55088 -8.646581,-8.70088 -2.121556,-2.81351 -3.515392,-4.86691 -9.392036,-13.8364 -1.211033,-1.84827 -1.544175,-2.67031 -1.082252,-2.67031 0.111051,0 1.152848,0.84188 2.315104,1.87084 5.144191,4.55423 11.082468,8.98811 14.170854,10.58083 1.679104,0.86594 4.271129,1.28514 9.109003,1.47317 6.371911,0.24766 9.582296,-0.52068 13.088438,-3.13244 2.232192,-1.66278 5.626619,-4.53505 9.080347,-7.68355 4.320423,-3.93859 4.479438,-3.82864 1.434854,0.99219 -7.34187,11.62519 -11.045116,17.08025 -12.709174,18.72121 -1.521404,1.50029 -4.9125,3.21073 -7.172745,3.61787 -2.099877,0.37825 -4.642956,0.32371 -6.89672,-0.14791 z"
         id="path858"
         inkscape:connector-curvature="0"
         sodipodi:nodetypes="ccscscccscscccc" />
      <path
         style="fill:#28a8e1;stroke-width:1.36767495"
         d="m -17.809182,302.2777 -48.424218,-30.06889 6.539276,-49.48158 86.047677,-31.93002 c -2.140027,6.21401 -4.222982,12.11789 -4.248658,17.35785 -0.005,4.44858 0.376997,6.90271 2.538908,10.65071 0.947481,1.61388 4.065923,4.96199 5.552067,5.96095 4.512461,3.03323 10.716445,5.15524 18.224783,6.23361 l 3.307292,0.475 8.178305,31.97765 c 1.076929,4.22011 2.088732,8.00899 2.248456,8.41978 0.495371,1.27397 1.109625,0.80317 1.664785,-1.27603 0.271986,-1.01864 1.143248,-4.23333 1.936139,-7.14375 l 8.531209,-32.06988 c 4.716037,-0.67455 7.244931,-1.46326 10.778607,-2.58699 7.181,-2.34749 12.725905,-6.77597 14.912229,-11.9098 2.303385,-5.4087 2.121005,-12.53246 -0.496065,-19.37619 -0.857143,-2.18752 -1.637152,-4.4038 -2.43549,-6.61317 l 85.53615,31.48928 8.39145,52.80242 -52.15983,27.15438 z"
         id="path854"
         inkscape:connector-curvature="0"
         sodipodi:nodetypes="cccccccscccccccscccccc" />
      <path
         style="fill:#895f37;stroke-width:1.36767495"
         d="M 64.981104,75.697074 C 29.403981,64.149499 21.873166,88.120419 18.337723,111.97902 c -0.280387,1.86417 -0.471014,5.69408 -0.57944,11.64167 -0.08887,4.87494 -0.238133,8.74448 -0.331684,8.59896 -0.09355,-0.14553 -1.323959,-3.89599 -2.734239,-8.33438 -1.410279,-4.43839 -3.328032,-10.42219 -4.261675,-13.29734 -0.9336435,-2.87515 -1.6975326,-5.65779 -1.6975326,-6.18363 0,-0.52584 -0.3525203,-2.45969 -0.7833757,-4.29745 L 6.1312365,93.102318 8.1033223,50.899713 c 0.067641,-0.231225 0.6690704,0.165208 1.7033373,1.122757 1.5817424,1.464415 2.7177334,2.032756 3.1647104,1.583322 0.126894,-0.12759 0.287584,-3.606155 0.35709,-7.730144 0.06951,-4.123989 0.170362,-7.542151 0.224128,-7.595915 0.05377,-0.05377 0.606975,1.445173 1.229355,3.330972 0.764357,2.315985 1.257152,3.42873 1.518465,3.42873 0.212775,0 0.434062,-0.148828 0.491749,-0.330729 0.09745,-0.307303 0.946322,-15.980873 0.939784,-17.352256 -0.0016,-0.339551 0.109085,-0.577676 0.246007,-0.529167 0.136925,0.04851 1.996162,2.112256 4.131641,4.58611 2.135479,2.473855 3.979979,4.603023 4.098888,4.731486 0.118912,0.128463 0.389078,0.16723 0.600374,0.08615 0.429795,-0.164928 -0.02059,-1.879282 -2.447327,-9.31555 -0.712335,-2.182813 -1.724403,-5.363853 -2.249043,-7.068977 -0.524637,-1.705123 -1.023908,-3.282701 -1.109493,-3.505729 -0.365583,-0.952693 -0.479912,-1.022101 11.807259,7.168005 8.453583,5.634802 11.156257,6.897021 12.306035,5.747242 0.930738,-0.930735 -0.335782,-3.72151 -3.823904,-8.425958 -2.297797,-3.099054 -2.34711,-3.183475 -1.712513,-2.931756 0.278533,0.110485 1.161267,0.30347 1.961632,0.428853 6.562693,1.028113 22.762046,4.414197 26.458334,5.53048 1.382448,0.417502 3.763698,1.137002 5.291667,1.598887 2.409348,0.728316 10.102971,3.469236 14.155208,5.042917 2.221868,0.862859 2.947877,0.924067 3.293806,0.277693 0.164939,-0.308195 0.266023,-0.707835 0.224631,-0.888087 -0.165044,-0.718701 0.356264,-0.53698 1.716371,0.598305 1.878012,1.567579 2.834984,2.827065 2.834984,3.731157 0,0.404542 0.110215,0.803645 0.244919,0.886899 0.134705,0.08325 2.053064,-0.273394 4.263013,-0.792549 2.20996,-0.519155 4.07305,-0.888966 4.14022,-0.821801 0.0672,0.06716 -0.0653,0.484457 -0.29427,0.927317 -0.22901,0.442859 -0.41638,1.212694 -0.41638,1.710745 0,1.711934 1.87513,5.091917 4.86984,8.778024 3.1995,3.93819 5.66653,10.905792 6.74506,19.05 2.83985,16.386186 1.39242,30.542983 -2.31622,43.523954 -0.43062,1.38245 -1.28315,4.18042 -1.89451,6.21771 -3.94717,13.15357 -5.34657,17.90193 -5.55692,18.27779 0.94637,-55.088819 -2.4309,-67.232744 -40.320146,-56.279526 z"
         id="path850"
         inkscape:connector-curvature="0"
         sodipodi:nodetypes="ccscssscccscscssccssccsccscsccsssccssccccscccccc" />
      <path
         style="fill:#774e28;stroke-width:1.36767495"
         d="m 46.303986,106.91683 c -0.945885,-0.12891 -3.208073,-0.46381 -5.027083,-0.74422 -1.81901,-0.2804 -5.950172,-0.52077 -7.041579,-0.62011 l -6.883889,2.59467 c 1.209855,-1.10626 6.512802,-7.2375 8.624124,-7.21017 4.211439,0.0545 13.238958,1.9732 15.872856,3.30224 1.75555,0.88584 2.646709,1.95599 2.13863,2.56819 -0.27078,0.32627 -0.908799,0.40248 -3.151392,0.37643 -1.546532,-0.018 -3.585781,-0.13813 -4.531667,-0.26703 z m 26.724307,0.0633 c -1.388036,-0.38622 -0.685007,-1.90679 1.368531,-2.95995 2.432515,-1.24753 11.368307,-3.15364 14.784139,-3.15364 1.592977,0 1.900266,0.0949 3.317941,1.02425 1.891226,1.23983 5.846027,4.868 5.450107,4.99998 -0.155943,0.052 -1.154009,-0.2913 -2.217923,-0.76285 -2.420562,-1.07284 -5.254082,-1.28571 -8.796247,-0.66081 0,0 -2.213135,0.59972 -8.544852,1.35458 -3.619965,0.42345 -4.333496,0.44454 -5.361696,0.15844 z M 64.981104,75.697074 91.360929,72.078468 62.808869,47.08137 l 0.858323,8.32625 c 0,0 -12.714994,-12.580004 -15.029369,-14.991024 l 3.486997,17.206521 c 0,0 -13.270506,-11.351767 -18.520834,-16.287848 0,0.196752 2.092246,23.607766 2.757279,29.617942 0.07511,0.678761 -9.193053,-9.400067 -13.477217,-13.979931 -1.574326,-1.682988 2.144591,14.500244 3.349971,20.372477 0.221695,1.080031 -12.911542,-6.170089 -12.911542,-6.170089 l 4.640207,40.798222 C 22.750907,87.747984 28.812581,64.941663 64.981104,75.697074 Z"
         id="path848"
         inkscape:connector-curvature="0"
         sodipodi:nodetypes="cccccccccccscccccccccccccsssccc" />
    </g>
  </g>
</svg>
